<svg xmlns="http://www.w3.org/2000/svg" viewBox="0 0 640 360" font-family="Prompt, sans-serif">
  <rect width="640" height="360" fill="#b01e1e"/>
  <rect width="640" height="360" fill="url(#g)"/>
  <defs><linearGradient id="g" x1="0" y1="0" x2="1" y2="1">
    <stop offset="0" stop-color="#ffffff" stop-opacity="0.12"/>
    <stop offset="1" stop-color="#000000" stop-opacity="0.18"/>
  </linearGradient></defs>
  <path d="M320 236c-2 0-4-.7-5.6-2C289 212.4 254 183.8 254 154c0-21.6 17-38.9 38-38.9 10.8 0 20.9 4.9 27.6 12.8 6.7-7.9 16.8-12.8 27.6-12.8 21 0 38 17.3 38 38.9 0 29.8-35 58.4-60.4 80-1.6 1.3-3.6 2-5.6 2z" fill="#ffffff" opacity="0.25"/>
  <path d="M180 170h70l16-36 26 72 20-52 13 16h115" fill="none" stroke="#ffffff" stroke-width="8" stroke-linecap="round" stroke-linejoin="round" opacity="0.55"/>
  <text x="320" y="285" text-anchor="middle" fill="#ffffff" font-size="34" font-weight="600">BLS Provider</text>
  <text x="320" y="322" text-anchor="middle" fill="#ffffff" font-size="20" opacity="0.85">บุคลากรการแพทย์</text>
</svg>